avconv version 9.18-6:9.18-0ubuntu0.14.04.1+fdkaac, Copyright (c) 2000-2014 the Libav developers
  built on Apr 10 2015 23:18:58 with gcc 4.8 (Ubuntu 4.8.2-19ubuntu1)
Input #0, image2, from 'imagenes/Cubo%02d.png':
  Duration: 00:00:04.00, start: 0.000000, bitrate: N/A
    Stream #0.0: Video: png, rgb24, 320x240, 25 fps, 25 tbr, 25 tbn
[libx264 @ 0x1ccf440] using cpu capabilities: MMX2 SSE2Fast SSSE3 SSE4.2 AVX
[libx264 @ 0x1ccf440] profile High, level 1.3
Output #0, avi, to 'result/cub_dia.avi':
  Metadata:
    ISFT            : Lavf54.20.4
    Stream #0.0: Video: libx264, yuv420p, 320x240, q=-1--1, 25 tbn, 25 tbc
Stream mapping:
  Stream #0:0 -> #0:0 (png -> libx264)
Press ctrl-c to stop encoding
frame=  100 fps=  0 q=32763.0 Lsize=     443kB time=3.92 bitrate= 926.3kbits/s    
video:192kB audio:0kB global headers:0kB muxing overhead 131.312174%
[libx264 @ 0x1ccf440] frame I:18    Avg QP:25.91  size:  6559
[libx264 @ 0x1ccf440] frame P:82    Avg QP:27.94  size:  3996
[libx264 @ 0x1ccf440] mb I  I16..4:  9.9% 82.0%  8.1%
[libx264 @ 0x1ccf440] mb P  I16..4:  4.9% 28.4%  5.0%  P16..4: 23.2% 24.6%  9.5%  0.0%  0.0%    skip: 4.3%
[libx264 @ 0x1ccf440] 8x8 transform intra:77.0% inter:74.6%
[libx264 @ 0x1ccf440] coded y,uvDC,uvAC intra: 72.3% 93.8% 77.5% inter: 54.7% 64.4% 15.1%
[libx264 @ 0x1ccf440] i16 v,h,dc,p: 10% 39% 14% 37%
[libx264 @ 0x1ccf440] i8 v,h,dc,ddl,ddr,vr,hd,vl,hu: 20% 15% 21%  6%  6%  9%  5% 12%  7%
[libx264 @ 0x1ccf440] i4 v,h,dc,ddl,ddr,vr,hd,vl,hu: 23% 11% 16%  9%  8% 10%  6% 13%  5%
[libx264 @ 0x1ccf440] i8c dc,h,v,p: 41% 20% 22% 17%
[libx264 @ 0x1ccf440] Weighted P-Frames: Y:18.3% UV:14.6%
[libx264 @ 0x1ccf440] kb/s:891.54
bench: utime=1.188s maxrss=48520kB
